<svg width="33" height="35" viewBox="0 0 33 35" fill="none" xmlns="http://www.w3.org/2000/svg">
<path d="M4.10938 4.27319H6.84887L7.39677 7.12199M7.39677 7.12199H28.7648L23.2858 18.5172H9.58836M7.39677 7.12199L9.58836 18.5172M9.58836 18.5172L6.44753 21.7833C5.58459 22.6807 6.1955 24.2148 7.41594 24.2148H23.2858M23.2858 24.2148C22.5593 24.2148 21.8625 24.5149 21.3487 25.0491C20.8349 25.5834 20.5463 26.308 20.5463 27.0635C20.5463 27.8191 20.8349 28.5437 21.3487 29.0779C21.8625 29.6122 22.5593 29.9123 23.2858 29.9123C24.0124 29.9123 24.7092 29.6122 25.2229 29.0779C25.7367 28.5437 26.0253 27.8191 26.0253 27.0635C26.0253 26.308 25.7367 25.5834 25.2229 25.0491C24.7092 24.5149 24.0124 24.2148 23.2858 24.2148ZM12.3279 27.0635C12.3279 27.8191 12.0392 28.5437 11.5255 29.0779C11.0117 29.6122 10.3149 29.9123 9.58836 29.9123C8.8618 29.9123 8.165 29.6122 7.65125 29.0779C7.13749 28.5437 6.84887 27.8191 6.84887 27.0635C6.84887 26.308 7.13749 25.5834 7.65125 25.0491C8.165 24.5149 8.8618 24.2148 9.58836 24.2148C10.3149 24.2148 11.0117 24.5149 11.5255 25.0491C12.0392 25.5834 12.3279 26.308 12.3279 27.0635Z" stroke="white" stroke-width="2" stroke-linecap="round" stroke-linejoin="round"/>
</svg>
