<svg width="24" height="26" viewBox="0 0 24 26" fill="none" xmlns="http://www.w3.org/2000/svg">
<path d="M9.33398 11.6667V19.6667M14.6673 11.6667V19.6667M1.33398 6.33333H22.6673M21.334 6.33333L20.178 22.5227C20.1301 23.1954 19.829 23.8251 19.3355 24.2848C18.8419 24.7444 18.1925 25 17.518 25H6.48332C5.80884 25 5.15941 24.7444 4.66583 24.2848C4.17226 23.8251 3.87121 23.1954 3.82332 22.5227L2.66732 6.33333H21.334ZM16.0007 6.33333V2.33333C16.0007 1.97971 15.8602 1.64057 15.6101 1.39052C15.3601 1.14048 15.0209 1 14.6673 1H9.33398C8.98036 1 8.64122 1.14048 8.39118 1.39052C8.14113 1.64057 8.00065 1.97971 8.00065 2.33333V6.33333H16.0007Z" stroke="#8B8989" stroke-width="2" stroke-linecap="round" stroke-linejoin="round"/>
</svg>
