<svg width="38" height="36" viewBox="0 0 38 36" fill="none" xmlns="http://www.w3.org/2000/svg">
<path d="M33.9942 16.7044L32.3634 14.6388C31.9984 14.1711 31.5164 13.7896 30.9574 13.5258C30.3984 13.262 29.7786 13.1236 29.1492 13.1221H22.2142V10.031C22.2142 9.07331 21.7972 8.15481 21.0548 7.47759C20.3125 6.80038 19.3057 6.41992 18.2559 6.41992H7.22005C6.17114 6.42259 5.16602 6.8039 4.42432 7.48054C3.68262 8.15718 3.26464 9.07413 3.26172 10.031V24.3888C3.26172 24.9634 3.51194 25.5145 3.95734 25.9209C4.40274 26.3272 5.00683 26.5555 5.63672 26.5555H7.56839C7.68794 27.3283 8.10942 28.0357 8.75526 28.5476C9.4011 29.0595 10.2279 29.3414 11.0834 29.3414C11.9389 29.3414 12.7657 29.0595 13.4115 28.5476C14.0574 28.0357 14.4788 27.3283 14.5984 26.5555H23.4017C23.5213 27.3283 23.9428 28.0357 24.5886 28.5476C25.2344 29.0595 26.0612 29.3414 26.9167 29.3414C27.7723 29.3414 28.599 29.0595 29.2448 28.5476C29.8907 28.0357 30.3122 27.3283 30.4317 26.5555H32.3634C32.9933 26.5555 33.5974 26.3272 34.0428 25.9209C34.4882 25.5145 34.7384 24.9634 34.7384 24.3888V18.7988C34.7345 18.0471 34.4745 17.3152 33.9942 16.7044ZM11.0834 27.8988C10.6919 27.8988 10.3093 27.7929 9.98382 27.5945C9.65835 27.3961 9.40467 27.1141 9.25487 26.7842C9.10508 26.4543 9.06588 26.0912 9.14225 25.741C9.21862 25.3908 9.40711 25.069 9.6839 24.8165C9.9607 24.564 10.3133 24.3921 10.6973 24.3224C11.0812 24.2527 11.4791 24.2885 11.8408 24.4251C12.2024 24.5618 12.5115 24.7932 12.729 25.0901C12.9465 25.3871 13.0626 25.7361 13.0626 26.0933C13.0626 26.5721 12.854 27.0314 12.4829 27.37C12.1117 27.7086 11.6083 27.8988 11.0834 27.8988ZM20.6309 25.111H14.4876C14.257 24.4525 13.803 23.878 13.1911 23.4702C12.5792 23.0625 11.8411 22.8428 11.0834 22.8428C10.3257 22.8428 9.58755 23.0625 8.97565 23.4702C8.36376 23.878 7.90976 24.4525 7.67922 25.111H5.63672C5.42676 25.111 5.22539 25.0349 5.07693 24.8995C4.92846 24.7641 4.84505 24.5804 4.84505 24.3888V10.031C4.84505 9.4564 5.09527 8.9053 5.54067 8.49897C5.98607 8.09264 6.59016 7.86437 7.22005 7.86437H18.2559C18.8858 7.86437 19.4899 8.09264 19.9353 8.49897C20.3807 8.9053 20.6309 9.4564 20.6309 10.031V25.111ZM26.9167 27.8988C26.5253 27.8988 26.1426 27.7929 25.8172 27.5945C25.4917 27.3961 25.238 27.1141 25.0882 26.7842C24.9384 26.4543 24.8992 26.0912 24.9756 25.741C25.0519 25.3908 25.2404 25.069 25.5172 24.8165C25.794 24.564 26.1467 24.3921 26.5306 24.3224C26.9145 24.2527 27.3125 24.2885 27.6741 24.4251C28.0358 24.5618 28.3449 24.7932 28.5623 25.0901C28.7798 25.3871 28.8959 25.7361 28.8959 26.0933C28.8959 26.5721 28.6874 27.0314 28.3162 27.37C27.945 27.7086 27.4416 27.8988 26.9167 27.8988ZM33.1551 24.3888C33.1551 24.5804 33.0716 24.7641 32.9232 24.8995C32.7747 25.0349 32.5734 25.111 32.3634 25.111H30.3209C30.0903 24.4525 29.6364 23.878 29.0245 23.4702C28.4126 23.0625 27.6744 22.8428 26.9167 22.8428C26.159 22.8428 25.4209 23.0625 24.809 23.4702C24.1971 23.878 23.7431 24.4525 23.5126 25.111H22.2142V14.5666H29.1492C29.527 14.5689 29.8988 14.6525 30.2345 14.8106C30.5701 14.9688 30.8601 15.1969 31.0809 15.4766L32.7117 17.5421C32.9967 17.9099 33.1514 18.3485 33.1551 18.7988V24.3888Z" fill="#003838"/>
<path d="M28.5452 18.1776H25.3786C25.1686 18.1776 24.9673 18.1015 24.8188 17.9661C24.6703 17.8306 24.5869 17.6469 24.5869 17.4554C24.5869 17.2638 24.6703 17.0801 24.8188 16.9447C24.9673 16.8092 25.1686 16.7332 25.3786 16.7332H28.5452C28.7552 16.7332 28.9566 16.8092 29.105 16.9447C29.2535 17.0801 29.3369 17.2638 29.3369 17.4554C29.3369 17.6469 29.2535 17.8306 29.105 17.9661C28.9566 18.1015 28.7552 18.1776 28.5452 18.1776Z" fill="#003838"/>
</svg>
