<svg width="31" height="31" viewBox="0 0 31 31" fill="none" xmlns="http://www.w3.org/2000/svg">
<path d="M30.5313 15.5C30.5313 12.5271 29.6497 9.62097 27.998 7.14909C26.3464 4.67722 23.9988 2.75062 21.2522 1.61294C18.5056 0.475263 15.4833 0.177594 12.5676 0.757578C9.65178 1.33756 6.97347 2.76915 4.87131 4.87131C2.76915 6.97347 1.33756 9.65178 0.757578 12.5676C0.177594 15.4833 0.475263 18.5056 1.61294 21.2522C2.75062 23.9988 4.67722 26.3464 7.14909 27.998C9.62097 29.6497 12.5271 30.5313 15.5 30.5313C19.4854 30.5274 23.3064 28.9426 26.1245 26.1245C28.9426 23.3064 30.5274 19.4854 30.5313 15.5ZM16.6563 28.1609V18.9688H20.125C20.4317 18.9688 20.7258 18.8469 20.9426 18.6301C21.1594 18.4133 21.2813 18.1192 21.2813 17.8125C21.2813 17.5058 21.1594 17.2118 20.9426 16.9949C20.7258 16.7781 20.4317 16.6563 20.125 16.6563H16.6563V13.1875C16.6563 12.5742 16.8999 11.986 17.3336 11.5523C17.7673 11.1186 18.3554 10.875 18.9688 10.875H21.2813C21.5879 10.875 21.882 10.7532 22.0989 10.5363C22.3157 10.3195 22.4375 10.0254 22.4375 9.71876C22.4375 9.4121 22.3157 9.118 22.0989 8.90117C21.882 8.68433 21.5879 8.56251 21.2813 8.56251H18.9688C17.7433 8.56632 16.5691 9.05482 15.7026 9.92135C14.8361 10.7879 14.3476 11.9621 14.3438 13.1875V16.6563H10.875C10.5683 16.6563 10.2743 16.7781 10.0574 16.9949C9.84058 17.2118 9.71876 17.5058 9.71876 17.8125C9.71876 18.1192 9.84058 18.4133 10.0574 18.6301C10.2743 18.8469 10.5683 18.9688 10.875 18.9688H14.3438V28.1609C11.0843 27.8634 8.06498 26.3207 5.91388 23.8539C3.76279 21.387 2.6455 18.1858 2.79443 14.9161C2.94336 11.6465 4.34703 8.56013 6.71348 6.29901C9.07993 4.0379 12.227 2.77611 15.5 2.77611C18.773 2.77611 21.9201 4.0379 24.2865 6.29901C26.653 8.56013 28.0567 11.6465 28.2056 14.9161C28.3545 18.1858 27.2372 21.387 25.0861 23.8539C22.935 26.3207 19.9157 27.8634 16.6563 28.1609Z" fill="#003838"/>
</svg>
