<svg width="204" height="23" viewBox="0 0 204 23" fill="none" xmlns="http://www.w3.org/2000/svg">
<path d="M41.8602 7.26C41.8602 7.60667 41.8136 7.95333 41.7202 8.3C41.6402 8.64667 41.5002 8.96667 41.3002 9.26C41.1002 9.54 40.8402 9.79333 40.5202 10.02C40.2002 10.2333 39.8136 10.3933 39.3602 10.5V10.62C39.7602 10.6867 40.1402 10.8 40.5002 10.96C40.8602 11.12 41.1736 11.34 41.4402 11.62C41.7069 11.9 41.9136 12.24 42.0602 12.64C42.2202 13.04 42.3002 13.5133 42.3002 14.06C42.3002 14.78 42.1469 15.4067 41.8402 15.94C41.5336 16.46 41.1202 16.8867 40.6002 17.22C40.0936 17.5533 39.5136 17.8 38.8602 17.96C38.2069 18.12 37.5336 18.2 36.8402 18.2C36.6136 18.2 36.3202 18.2 35.9602 18.2C35.6136 18.2 35.2336 18.1867 34.8202 18.16C34.4202 18.1467 34.0069 18.12 33.5802 18.08C33.1669 18.04 32.7869 17.98 32.4402 17.9V4.1C32.6936 4.06 32.9802 4.02 33.3002 3.98C33.6336 3.94 33.9869 3.90667 34.3602 3.88C34.7336 3.85333 35.1136 3.83333 35.5002 3.82C35.9002 3.80667 36.2936 3.8 36.6802 3.8C37.3336 3.8 37.9669 3.85333 38.5802 3.96C39.2069 4.05333 39.7602 4.22667 40.2402 4.48C40.7336 4.73333 41.1269 5.08667 41.4202 5.54C41.7136 5.99333 41.8602 6.56667 41.8602 7.26ZM36.8602 15.94C37.1936 15.94 37.5136 15.9 37.8202 15.82C38.1402 15.74 38.4202 15.62 38.6602 15.46C38.9002 15.2867 39.0936 15.0733 39.2402 14.82C39.3869 14.5667 39.4602 14.2667 39.4602 13.92C39.4602 13.48 39.3736 13.1333 39.2002 12.88C39.0269 12.6267 38.8002 12.4333 38.5202 12.3C38.2402 12.1533 37.9269 12.06 37.5802 12.02C37.2336 11.98 36.8869 11.96 36.5402 11.96H35.0802V15.82C35.1469 15.8467 35.2536 15.8667 35.4002 15.88C35.5469 15.8933 35.7002 15.9067 35.8602 15.92C36.0336 15.92 36.2069 15.9267 36.3802 15.94C36.5669 15.94 36.7269 15.94 36.8602 15.94ZM35.9602 9.88C36.1469 9.88 36.3602 9.87333 36.6002 9.86C36.8536 9.84667 37.0602 9.82667 37.2202 9.8C37.7269 9.64 38.1602 9.4 38.5202 9.08C38.8936 8.76 39.0802 8.34 39.0802 7.82C39.0802 7.47333 39.0136 7.18667 38.8802 6.96C38.7469 6.73333 38.5669 6.55333 38.3402 6.42C38.1269 6.28667 37.8802 6.19333 37.6002 6.14C37.3202 6.08667 37.0269 6.06 36.7202 6.06C36.3736 6.06 36.0536 6.06667 35.7602 6.08C35.4669 6.09333 35.2402 6.11333 35.0802 6.14V9.88H35.9602ZM43.7166 13C43.7166 11.3067 44.13 10.0067 44.9566 9.1C45.7833 8.18 46.9433 7.72 48.4366 7.72C49.2366 7.72 49.93 7.84667 50.5166 8.1C51.1033 8.35333 51.59 8.71333 51.9766 9.18C52.3633 9.63333 52.65 10.1867 52.8366 10.84C53.0366 11.4933 53.1366 12.2133 53.1366 13C53.1366 14.6933 52.7233 16 51.8966 16.92C51.0833 17.8267 49.93 18.28 48.4366 18.28C47.6366 18.28 46.9433 18.1533 46.3566 17.9C45.77 17.6467 45.2766 17.2933 44.8766 16.84C44.49 16.3733 44.1966 15.8133 43.9966 15.16C43.81 14.5067 43.7166 13.7867 43.7166 13ZM46.3966 13C46.3966 13.44 46.4366 13.8467 46.5166 14.22C46.5966 14.5933 46.7166 14.92 46.8766 15.2C47.0366 15.48 47.2433 15.7 47.4966 15.86C47.7633 16.0067 48.0766 16.08 48.4366 16.08C49.1166 16.08 49.6233 15.8333 49.9566 15.34C50.29 14.8467 50.4566 14.0667 50.4566 13C50.4566 12.08 50.3033 11.34 49.9966 10.78C49.69 10.2067 49.17 9.92 48.4366 9.92C47.7966 9.92 47.2966 10.16 46.9366 10.64C46.5766 11.12 46.3966 11.9067 46.3966 13ZM60.9588 13.44L61.0588 12.02H60.9988L60.1388 13.48L56.5788 18H54.9388V8H57.5388V12.76L57.4188 14.12H57.4988L58.3188 12.7L61.9188 8H63.5588V18H60.9588V13.44ZM58.1788 3.92C58.2722 4.44 58.4255 4.80667 58.6388 5.02C58.8655 5.23333 59.1522 5.34 59.4988 5.34C59.8722 5.34 60.1655 5.23333 60.3788 5.02C60.6055 4.80667 60.7588 4.44667 60.8388 3.94L62.8188 4.44C62.6588 5.30667 62.2655 5.95333 61.6388 6.38C61.0122 6.79333 60.2788 7 59.4388 7C59.0255 7 58.6255 6.95333 58.2388 6.86C57.8522 6.76667 57.5055 6.62 57.1988 6.42C56.8922 6.20667 56.6322 5.94 56.4188 5.62C56.2055 5.3 56.0588 4.90667 55.9788 4.44L58.1788 3.92ZM73.0373 10.3H70.2173V18H67.5373V10.3H64.7173V8H73.0373V10.3ZM80.2166 13.44L80.3166 12.02H80.2566L79.3966 13.48L75.8366 18H74.1966V8H76.7966V12.76L76.6766 14.12H76.7566L77.5766 12.7L81.1766 8H82.8166V18H80.2166V13.44ZM91.9416 8V10.28C91.9416 10.6933 91.955 11.0533 91.9816 11.36C92.0216 11.6533 92.0883 11.9 92.1816 12.1C92.2883 12.2867 92.4283 12.4267 92.6016 12.52C92.7883 12.6133 93.0283 12.66 93.3216 12.66C93.7083 12.66 94.0416 12.6133 94.3216 12.52C94.615 12.4267 94.855 12.3133 95.0416 12.18V8H97.6416V18H95.0416V14.08C94.8416 14.2267 94.535 14.3933 94.1216 14.58C93.7083 14.7533 93.155 14.84 92.4616 14.84C91.9683 14.84 91.5283 14.7867 91.1416 14.68C90.755 14.5733 90.4283 14.3867 90.1616 14.12C89.895 13.8533 89.6883 13.5 89.5416 13.06C89.4083 12.62 89.3416 12.0667 89.3416 11.4V8H91.9416ZM107.919 17.14C107.519 17.46 106.973 17.7333 106.279 17.96C105.599 18.1733 104.873 18.28 104.099 18.28C102.486 18.28 101.306 17.8133 100.559 16.88C99.8126 15.9333 99.4393 14.64 99.4393 13C99.4393 11.24 99.8593 9.92 100.699 9.04C101.539 8.16 102.719 7.72 104.239 7.72C104.746 7.72 105.239 7.78667 105.719 7.92C106.199 8.05333 106.626 8.27333 106.999 8.58C107.373 8.88667 107.673 9.3 107.899 9.82C108.126 10.34 108.239 10.9867 108.239 11.76C108.239 12.04 108.219 12.34 108.179 12.66C108.153 12.98 108.106 13.3133 108.039 13.66H102.039C102.079 14.5 102.293 15.1333 102.679 15.56C103.079 15.9867 103.719 16.2 104.599 16.2C105.146 16.2 105.633 16.12 106.059 15.96C106.499 15.7867 106.833 15.6133 107.059 15.44L107.919 17.14ZM104.199 9.8C103.519 9.8 103.013 10.0067 102.679 10.42C102.359 10.82 102.166 11.36 102.099 12.04H105.819C105.873 11.32 105.759 10.7667 105.479 10.38C105.213 9.99333 104.786 9.8 104.199 9.8ZM110.076 8H111.976L112.276 9.2H112.356C112.702 8.69333 113.109 8.32 113.576 8.08C114.056 7.84 114.636 7.72 115.316 7.72C116.569 7.72 117.509 8.12 118.136 8.92C118.762 9.70667 119.076 10.98 119.076 12.74C119.076 13.5933 118.976 14.3667 118.776 15.06C118.576 15.74 118.276 16.32 117.876 16.8C117.489 17.28 117.009 17.6467 116.436 17.9C115.876 18.1533 115.229 18.28 114.496 18.28C114.082 18.28 113.742 18.2467 113.476 18.18C113.209 18.1267 112.942 18.0333 112.676 17.9V22H110.076V8ZM114.536 9.92C114.029 9.92 113.629 10.0467 113.336 10.3C113.056 10.5533 112.836 10.9333 112.676 11.44V15.6C112.862 15.7467 113.062 15.8667 113.276 15.96C113.502 16.04 113.796 16.08 114.156 16.08C114.902 16.08 115.462 15.82 115.836 15.3C116.209 14.7667 116.396 13.8933 116.396 12.68C116.396 11.8 116.249 11.12 115.956 10.64C115.662 10.16 115.189 9.92 114.536 9.92ZM128.876 17.14C128.476 17.46 127.93 17.7333 127.236 17.96C126.556 18.1733 125.83 18.28 125.056 18.28C123.443 18.28 122.263 17.8133 121.516 16.88C120.77 15.9333 120.396 14.64 120.396 13C120.396 11.24 120.816 9.92 121.656 9.04C122.496 8.16 123.676 7.72 125.196 7.72C125.703 7.72 126.196 7.78667 126.676 7.92C127.156 8.05333 127.583 8.27333 127.956 8.58C128.33 8.88667 128.63 9.3 128.856 9.82C129.083 10.34 129.196 10.9867 129.196 11.76C129.196 12.04 129.176 12.34 129.136 12.66C129.11 12.98 129.063 13.3133 128.996 13.66H122.996C123.036 14.5 123.25 15.1333 123.636 15.56C124.036 15.9867 124.676 16.2 125.556 16.2C126.103 16.2 126.59 16.12 127.016 15.96C127.456 15.7867 127.79 15.6133 128.016 15.44L128.876 17.14ZM125.156 9.8C124.476 9.8 123.97 10.0067 123.636 10.42C123.316 10.82 123.123 11.36 123.056 12.04H126.776C126.83 11.32 126.716 10.7667 126.436 10.38C126.17 9.99333 125.743 9.8 125.156 9.8ZM132.073 13.86V12.04H133.293C133.759 12.04 134.139 11.9467 134.433 11.76C134.739 11.5733 134.893 11.3267 134.893 11.02C134.893 10.66 134.759 10.4067 134.493 10.26C134.226 10.1 133.819 10.02 133.273 10.02C132.753 10.02 132.293 10.0867 131.893 10.22C131.493 10.3533 131.173 10.4933 130.933 10.64L130.373 8.66C130.773 8.43333 131.299 8.24 131.953 8.08C132.619 7.90667 133.326 7.82 134.073 7.82C135.219 7.82 136.073 8.03333 136.633 8.46C137.206 8.88667 137.493 9.50667 137.493 10.32C137.493 10.5467 137.459 10.78 137.393 11.02C137.339 11.2467 137.246 11.4667 137.113 11.68C136.979 11.8933 136.813 12.0867 136.613 12.26C136.426 12.42 136.199 12.5467 135.933 12.64V12.72C136.639 12.88 137.139 13.1667 137.433 13.58C137.726 13.98 137.873 14.52 137.873 15.2C137.873 15.6267 137.786 16.0267 137.613 16.4C137.439 16.76 137.173 17.0733 136.813 17.34C136.466 17.6067 136.026 17.82 135.493 17.98C134.959 18.14 134.326 18.22 133.593 18.22C132.859 18.22 132.219 18.1467 131.673 18C131.139 17.84 130.693 17.66 130.333 17.46L130.893 15.44C131.199 15.6133 131.566 15.7533 131.993 15.86C132.433 15.9667 132.919 16.02 133.453 16.02C134.666 16.02 135.273 15.6333 135.273 14.86C135.273 14.5133 135.113 14.26 134.793 14.1C134.486 13.94 133.906 13.86 133.053 13.86H132.073ZM149.47 10.7H154.69V16.94C154.13 17.4067 153.457 17.7467 152.67 17.96C151.897 18.1733 151.13 18.28 150.37 18.28C149.477 18.28 148.643 18.14 147.87 17.86C147.11 17.58 146.45 17.1467 145.89 16.56C145.33 15.96 144.89 15.2 144.57 14.28C144.25 13.36 144.09 12.2667 144.09 11C144.09 9.68 144.277 8.56 144.65 7.64C145.037 6.70667 145.537 5.95333 146.15 5.38C146.777 4.79333 147.477 4.37333 148.25 4.12C149.023 3.85333 149.81 3.72 150.61 3.72C151.41 3.72 152.11 3.78 152.71 3.9C153.323 4.02 153.81 4.14667 154.17 4.28L153.61 6.58C153.277 6.44667 152.903 6.34667 152.49 6.28C152.077 6.2 151.55 6.16 150.91 6.16C150.337 6.16 149.81 6.24667 149.33 6.42C148.85 6.59333 148.43 6.88 148.07 7.28C147.723 7.66667 147.45 8.16667 147.25 8.78C147.063 9.39333 146.97 10.14 146.97 11.02C146.97 11.86 147.063 12.5867 147.25 13.2C147.437 13.8 147.697 14.3 148.03 14.7C148.363 15.0867 148.75 15.3733 149.19 15.56C149.643 15.7467 150.123 15.84 150.63 15.84C150.977 15.84 151.317 15.8 151.65 15.72C151.983 15.6267 152.263 15.4933 152.49 15.32V12.68L149.47 12.36V10.7ZM156.178 13C156.178 11.3067 156.591 10.0067 157.418 9.1C158.244 8.18 159.404 7.72 160.898 7.72C161.698 7.72 162.391 7.84667 162.978 8.1C163.564 8.35333 164.051 8.71333 164.438 9.18C164.824 9.63333 165.111 10.1867 165.298 10.84C165.498 11.4933 165.598 12.2133 165.598 13C165.598 14.6933 165.184 16 164.358 16.92C163.544 17.8267 162.391 18.28 160.898 18.28C160.098 18.28 159.404 18.1533 158.818 17.9C158.231 17.6467 157.738 17.2933 157.338 16.84C156.951 16.3733 156.658 15.8133 156.458 15.16C156.271 14.5067 156.178 13.7867 156.178 13ZM158.858 13C158.858 13.44 158.898 13.8467 158.978 14.22C159.058 14.5933 159.178 14.92 159.338 15.2C159.498 15.48 159.704 15.7 159.958 15.86C160.224 16.0067 160.538 16.08 160.898 16.08C161.578 16.08 162.084 15.8333 162.418 15.34C162.751 14.8467 162.918 14.0667 162.918 13C162.918 12.08 162.764 11.34 162.458 10.78C162.151 10.2067 161.631 9.92 160.898 9.92C160.258 9.92 159.758 10.16 159.398 10.64C159.038 11.12 158.858 11.9067 158.858 13ZM166.92 13C166.92 11.3067 167.333 10.0067 168.16 9.1C168.986 8.18 170.146 7.72 171.64 7.72C172.44 7.72 173.133 7.84667 173.72 8.1C174.306 8.35333 174.793 8.71333 175.18 9.18C175.566 9.63333 175.853 10.1867 176.04 10.84C176.24 11.4933 176.34 12.2133 176.34 13C176.34 14.6933 175.926 16 175.1 16.92C174.286 17.8267 173.133 18.28 171.64 18.28C170.84 18.28 170.146 18.1533 169.56 17.9C168.973 17.6467 168.48 17.2933 168.08 16.84C167.693 16.3733 167.4 15.8133 167.2 15.16C167.013 14.5067 166.92 13.7867 166.92 13ZM169.6 13C169.6 13.44 169.64 13.8467 169.72 14.22C169.8 14.5933 169.92 14.92 170.08 15.2C170.24 15.48 170.446 15.7 170.7 15.86C170.966 16.0067 171.28 16.08 171.64 16.08C172.32 16.08 172.826 15.8333 173.16 15.34C173.493 14.8467 173.66 14.0667 173.66 13C173.66 12.08 173.506 11.34 173.2 10.78C172.893 10.2067 172.373 9.92 171.64 9.92C171 9.92 170.5 10.16 170.14 10.64C169.78 11.12 169.6 11.9067 169.6 13ZM186.602 18C186.602 19.4533 186.209 20.52 185.422 21.2C184.635 21.8933 183.535 22.24 182.122 22.24C181.162 22.24 180.402 22.1733 179.842 22.04C179.295 21.9067 178.882 21.7667 178.602 21.62L179.142 19.56C179.449 19.68 179.802 19.8 180.202 19.92C180.615 20.04 181.122 20.1 181.722 20.1C182.629 20.1 183.242 19.9 183.562 19.5C183.895 19.1133 184.062 18.5667 184.062 17.86V17.22H183.982C183.515 17.8467 182.689 18.16 181.502 18.16C180.209 18.16 179.242 17.76 178.602 16.96C177.975 16.16 177.662 14.9067 177.662 13.2C177.662 11.4133 178.089 10.06 178.942 9.14C179.795 8.22 181.035 7.76 182.662 7.76C183.515 7.76 184.275 7.82 184.942 7.94C185.622 8.06 186.175 8.2 186.602 8.36V18ZM182.202 16.08C182.709 16.08 183.095 15.9667 183.362 15.74C183.642 15.5133 183.855 15.1733 184.002 14.72V10.22C183.589 10.0467 183.075 9.96 182.462 9.96C181.795 9.96 181.275 10.2133 180.902 10.72C180.529 11.2133 180.342 12.0067 180.342 13.1C180.342 14.0733 180.502 14.8133 180.822 15.32C181.142 15.8267 181.602 16.08 182.202 16.08ZM191.545 14.64C191.545 15.1067 191.605 15.4467 191.725 15.66C191.845 15.8733 192.038 15.98 192.305 15.98C192.465 15.98 192.618 15.9667 192.765 15.94C192.925 15.9133 193.118 15.8533 193.345 15.76L193.625 17.8C193.411 17.9067 193.085 18.0133 192.645 18.12C192.205 18.2267 191.751 18.28 191.285 18.28C190.525 18.28 189.945 18.1067 189.545 17.76C189.145 17.4 188.945 16.8133 188.945 16V4H191.545V14.64ZM202.744 17.14C202.344 17.46 201.797 17.7333 201.104 17.96C200.424 18.1733 199.697 18.28 198.924 18.28C197.31 18.28 196.13 17.8133 195.384 16.88C194.637 15.9333 194.264 14.64 194.264 13C194.264 11.24 194.684 9.92 195.524 9.04C196.364 8.16 197.544 7.72 199.064 7.72C199.57 7.72 200.064 7.78667 200.544 7.92C201.024 8.05333 201.45 8.27333 201.824 8.58C202.197 8.88667 202.497 9.3 202.724 9.82C202.95 10.34 203.064 10.9867 203.064 11.76C203.064 12.04 203.044 12.34 203.004 12.66C202.977 12.98 202.93 13.3133 202.864 13.66H196.864C196.904 14.5 197.117 15.1333 197.504 15.56C197.904 15.9867 198.544 16.2 199.424 16.2C199.97 16.2 200.457 16.12 200.884 15.96C201.324 15.7867 201.657 15.6133 201.884 15.44L202.744 17.14ZM199.024 9.8C198.344 9.8 197.837 10.0067 197.504 10.42C197.184 10.82 196.99 11.36 196.924 12.04H200.644C200.697 11.32 200.584 10.7667 200.304 10.38C200.037 9.99333 199.61 9.8 199.024 9.8Z" fill="#003838"/>
<g clip-path="url(#clip0_389_432)">
<path d="M20.9898 11.2059C20.9898 10.3045 20.9183 9.64681 20.7637 8.96472H10.709V13.0329H16.6109C16.4919 14.0439 15.8494 15.5664 14.4215 16.5895L14.4015 16.7257L17.5806 19.2467L17.8008 19.2692C19.8236 17.3569 20.9898 14.5432 20.9898 11.2059Z" fill="#4285F4"/>
<path d="M10.709 21.9244C13.6004 21.9244 16.0278 20.9499 17.8008 19.2691L14.4215 16.5894C13.5172 17.2349 12.3034 17.6856 10.709 17.6856C7.87702 17.6856 5.47342 15.7734 4.61661 13.1302L4.49102 13.1412L1.18532 15.7599L1.14209 15.8829C2.90314 19.4639 6.52047 21.9244 10.709 21.9244Z" fill="#34A853"/>
<path d="M4.6168 13.1303C4.39072 12.4482 4.25988 11.7174 4.25988 10.9622C4.25988 10.207 4.39072 9.47621 4.60491 8.79413L4.59892 8.64886L1.2518 5.98804L1.14229 6.04136C0.416473 7.52737 0 9.19609 0 10.9622C0 12.7284 0.416473 14.397 1.14229 15.883L4.6168 13.1303Z" fill="#FBBC05"/>
<path d="M10.709 4.23869C12.7199 4.23869 14.0764 5.12785 14.8498 5.87089L17.8722 2.85018C16.016 1.08405 13.6004 0 10.709 0C6.52047 0 2.90314 2.46039 1.14209 6.04135L4.60471 8.79412C5.47342 6.15102 7.87702 4.23869 10.709 4.23869Z" fill="#EB4335"/>
</g>
<defs>
<clipPath id="clip0_389_432">
<rect width="21" height="22" fill="white"/>
</clipPath>
</defs>
</svg>
