<svg width="28" height="29" viewBox="0 0 28 29" fill="none" xmlns="http://www.w3.org/2000/svg">
<path fill-rule="evenodd" clip-rule="evenodd" d="M25.5413 26.0392C26.2368 25.3416 26.7829 24.5032 27.1392 23.5837C27.4805 22.7005 27.7152 21.6936 27.7835 20.2173C27.8517 18.7389 27.8688 18.2653 27.8688 14.5C27.8688 10.7346 27.8517 10.261 27.7835 8.78263C27.7152 7.30637 27.4805 6.29943 27.1392 5.41623C26.7908 4.4911 26.2448 3.65312 25.5392 2.96077C24.8468 2.25527 24.0088 1.70925 23.0837 1.36077C22.2005 1.01943 21.1936 0.784768 19.7173 0.716501C18.2389 0.648234 17.7653 0.633301 14 0.633301C10.2347 0.633301 9.76107 0.648234 8.28267 0.718634C6.8064 0.782634 5.79947 1.0173 4.91627 1.36077C3.9916 1.71005 3.1538 2.25596 2.4608 2.96077C1.75599 3.65377 1.21008 4.49156 0.860798 5.41623C0.519465 6.29943 0.284798 7.30637 0.216531 8.78263C0.148265 10.261 0.133331 10.7346 0.133331 14.5C0.133331 18.2653 0.148265 18.7389 0.218665 20.2173C0.282665 21.6936 0.517331 22.7005 0.860798 23.5837C1.21066 24.5096 1.7568 25.3458 2.4608 26.0392C3.15413 26.7432 3.99253 27.2893 4.91627 27.6392C5.79947 27.9805 6.8064 28.2152 8.28267 28.2834C9.76107 28.3496 10.2347 28.3666 14 28.3666C17.7653 28.3666 18.2389 28.3496 19.7173 28.2813C21.1936 28.2173 22.2005 27.9826 23.0837 27.6392C24.0047 27.2827 24.8432 26.7377 25.5413 26.0392ZM2.26666 12.868V16.132C2.2624 17.8834 2.2624 18.3378 2.30933 19.332C2.3648 20.5821 2.43306 21.4994 2.64213 22.1906C2.84266 22.8562 3.06666 23.5346 3.80053 24.3496C4.5344 25.1666 5.24053 25.5357 6.1408 25.8088C7.0432 26.0797 8.176 26.1373 9.15946 26.1821C10.2731 26.2333 10.7168 26.2333 13.0549 26.2333H15.5787C17.3749 26.2354 17.8272 26.2376 18.8341 26.1906C20.0821 26.133 20.9995 26.0648 21.6928 25.8578C22.3563 25.6573 23.0347 25.4312 23.8496 24.6994C24.6667 23.9656 25.0357 23.2573 25.3088 22.357C25.5797 21.4568 25.6395 20.324 25.6843 19.3405C25.7333 18.2269 25.7333 17.7853 25.7333 15.4536V13.5549C25.7333 11.2168 25.7333 10.7752 25.6843 9.65943C25.6395 8.67597 25.5797 7.54317 25.3088 6.6429C25.0379 5.7405 24.6688 5.03437 23.8496 4.3005C23.0325 3.56663 22.3563 3.34263 21.6928 3.1421C20.9995 2.93517 20.0821 2.86477 18.8341 2.8093C17.7496 2.76473 16.664 2.75051 15.5787 2.76663H13.0549C10.7168 2.76663 10.2731 2.76663 9.15946 2.8157C8.176 2.8605 7.0432 2.92023 6.1408 3.19117C5.24053 3.46423 4.5344 3.8333 3.80053 4.65037C3.06666 5.46743 2.84053 6.1437 2.64213 6.8093C2.43306 7.5005 2.3648 8.41783 2.30933 9.66797C2.2624 10.6621 2.2624 11.1165 2.26666 12.868ZM14 9.69997C12.727 9.69997 11.5061 10.2057 10.6059 11.1059C9.70571 12.006 9.2 13.2269 9.2 14.5C9.2 15.773 9.70571 16.9939 10.6059 17.8941C11.5061 18.7943 12.727 19.3 14 19.3C15.273 19.3 16.4939 18.7943 17.3941 17.8941C18.2943 16.9939 18.8 15.773 18.8 14.5C18.8 13.2269 18.2943 12.006 17.3941 11.1059C16.4939 10.2057 15.273 9.69997 14 9.69997ZM7.06667 14.5C7.06667 12.6611 7.79714 10.8976 9.09739 9.59736C10.3976 8.29711 12.1612 7.56663 14 7.56663C15.8388 7.56663 17.6024 8.29711 18.9026 9.59736C20.2029 10.8976 20.9333 12.6611 20.9333 14.5C20.9333 16.3388 20.2029 18.1023 18.9026 19.4026C17.6024 20.7028 15.8388 21.4333 14 21.4333C12.1612 21.4333 10.3976 20.7028 9.09739 19.4026C7.79714 18.1023 7.06667 16.3388 7.06667 14.5ZM21.4027 8.6973C21.827 8.6973 22.234 8.52873 22.534 8.22867C22.8341 7.92861 23.0027 7.52165 23.0027 7.0973C23.0027 6.67296 22.8341 6.26599 22.534 5.96593C22.234 5.66587 21.827 5.4973 21.4027 5.4973C20.9783 5.4973 20.5714 5.66587 20.2713 5.96593C19.9712 6.26599 19.8027 6.67296 19.8027 7.0973C19.8027 7.52165 19.9712 7.92861 20.2713 8.22867C20.5714 8.52873 20.9783 8.6973 21.4027 8.6973Z" fill="#003838"/>
</svg>
