<svg width="84" height="57" viewBox="0 0 84 57" fill="none" xmlns="http://www.w3.org/2000/svg">
<path d="M0 23.7973V1.44617H3.3434L9.43316 15.9189L15.4931 1.44617H18.8365V23.7973H15.6125V7.58926L10.4183 19.9448H8.44806L3.22399 7.58926V23.7973H0Z" fill="#003838"/>
<path d="M24.7376 29.9057C23.6629 29.9057 22.7474 29.7437 21.9912 29.4198V26.6085C22.3295 26.7474 22.638 26.8399 22.9166 26.8862C23.2151 26.9325 23.5136 26.9556 23.8122 26.9556C24.4291 26.9556 24.9266 26.8399 25.3047 26.6085C25.6829 26.3772 26.0112 26.007 26.2899 25.4979C26.5884 25.012 26.9068 24.3757 27.2451 23.5891L20.9464 7.34631H24.3196L28.8571 19.5631L33.4543 7.34631H36.7977L31.0363 22.8602C30.5388 24.2485 30.0014 25.4632 29.4243 26.5044C28.8671 27.5688 28.2103 28.4017 27.4541 29.0033C26.7177 29.6049 25.8122 29.9057 24.7376 29.9057Z" fill="#003838"/>
<path d="M0.606934 56.6529V34.3018H9.17439C10.6471 34.3018 11.8611 34.6257 12.8163 35.2736C13.7716 35.9215 14.4781 36.8123 14.9358 37.946C15.3935 39.0566 15.6224 40.3292 15.6224 41.7638C15.6224 43.985 15.0253 45.7666 13.8313 47.1086C12.6571 48.4506 11.065 49.1216 9.05499 49.1216H3.86078V56.6529H0.606934ZM3.86078 46.1368H8.45795C9.75153 46.1368 10.7267 45.7435 11.3834 44.9568C12.0402 44.1701 12.3685 43.1058 12.3685 41.7638C12.3685 40.3292 12.0501 39.2186 11.4133 38.4319C10.7963 37.6452 9.86099 37.2519 8.60721 37.2519H3.86078V46.1368Z" fill="#003838"/>
<path d="M18.2148 56.6529V33.2606H21.4687V41.7985C22.0856 41.22 22.8219 40.7573 23.6777 40.4102C24.5334 40.04 25.4987 39.8549 26.5733 39.8549C28.3644 39.8549 29.6879 40.3524 30.5436 41.3473C31.3994 42.3422 31.8272 43.8924 31.8272 45.998V56.6529H28.6032V46.1715C28.6032 44.8989 28.3644 44.0081 27.8868 43.4991C27.4291 42.9901 26.6231 42.7356 25.4688 42.7356C24.7524 42.7356 24.026 42.9207 23.2896 43.2909C22.5533 43.6379 21.9463 44.1007 21.4687 44.6791V56.6529H18.2148Z" fill="#003838"/>
<path d="M39.4537 57C38.5581 57 37.7223 56.8149 36.9461 56.4447C36.1899 56.0745 35.5829 55.5192 35.1251 54.7788C34.6674 54.0152 34.4386 53.0782 34.4386 51.9675C34.4386 50.3942 34.8963 49.1332 35.8117 48.1845C36.7471 47.2127 38.18 46.7268 40.1104 46.7268H44.6479V45.998C44.6479 45.2113 44.5384 44.5866 44.3195 44.1238C44.1205 43.6611 43.7424 43.3256 43.1851 43.1173C42.6478 42.9091 41.8518 42.805 40.797 42.805C39.1253 42.805 37.563 43.0942 36.1103 43.6726V40.8614C36.7471 40.5606 37.5232 40.3177 38.4387 40.1326C39.3542 39.9474 40.3393 39.8549 41.394 39.8549C43.4637 39.8549 45.0359 40.3408 46.1106 41.3126C47.2052 42.2844 47.7525 43.8693 47.7525 46.0674V56.6529H44.9762L44.7673 54.987C44.1901 55.6349 43.4737 56.1323 42.618 56.4794C41.7821 56.8265 40.7273 57 39.4537 57ZM40.3194 54.2929C41.2945 54.2929 42.1403 54.1078 42.8568 53.7376C43.5931 53.3442 44.1901 52.8236 44.6479 52.1758V49.2951H40.1701C39.2148 49.2951 38.5183 49.5149 38.0805 49.9546C37.6626 50.371 37.4536 51.0189 37.4536 51.8981C37.4536 52.7542 37.7024 53.3674 38.1999 53.7376C38.6974 54.1078 39.4039 54.2929 40.3194 54.2929Z" fill="#003838"/>
<path d="M51.3608 56.6529V40.202H54.346L54.5251 42.1108C55.2017 41.6018 56.0077 41.139 56.9431 40.7226C57.8784 40.3061 58.8038 40.0169 59.7193 39.8549V42.7356C59.1621 42.8512 58.5551 43.0248 57.8983 43.2562C57.2615 43.4644 56.6545 43.7073 56.0774 43.985C55.5002 44.2395 55.0127 44.5056 54.6146 44.7833V56.6529H51.3608Z" fill="#003838"/>
<path d="M62.0888 56.6529V40.202H65.0739L65.2232 41.9373C65.9197 41.2894 66.6859 40.7804 67.5218 40.4102C68.3576 40.04 69.2532 39.8549 70.2085 39.8549C71.2234 39.8549 72.0095 40.0516 72.5667 40.4449C73.1439 40.8151 73.5817 41.3357 73.8802 42.0067C74.537 41.382 75.2932 40.873 76.149 40.4796C77.0047 40.0631 78.0296 39.8549 79.2237 39.8549C80.8556 39.8549 82.0596 40.3408 82.8358 41.3126C83.6119 42.2844 84 43.7768 84 45.7897V56.6529H80.8058V46.1715C80.8058 44.8989 80.577 44.0081 80.1192 43.4991C79.6615 42.9901 78.9152 42.7356 77.8804 42.7356C77.2037 42.7356 76.5569 42.8744 75.94 43.152C75.343 43.4297 74.8255 43.8462 74.3877 44.4015C74.4474 44.656 74.4872 44.9221 74.5071 45.1997C74.527 45.4774 74.537 45.7782 74.537 46.1021V56.6529H71.5219V46.2062C71.5219 45.0031 71.3428 44.1238 70.9846 43.5685C70.6264 43.0132 69.9497 42.7356 68.9547 42.7356C68.2581 42.7356 67.5914 42.9322 66.9546 43.3256C66.3377 43.6958 65.7804 44.147 65.2829 44.6791V56.6529H62.0888Z" fill="#003838"/>
<path fill-rule="evenodd" clip-rule="evenodd" d="M60.3105 0C61.8371 0 63.0746 1.43877 63.0746 3.21358V25.7087C63.0746 27.4835 61.8371 28.9223 60.3105 28.9223C58.784 28.9223 57.5465 27.4835 57.5465 25.7087V3.21358C57.5465 1.43877 58.784 0 60.3105 0Z" fill="#27AE60"/>
<path fill-rule="evenodd" clip-rule="evenodd" d="M72.7488 14.4611C72.7488 16.2359 71.5113 17.6747 69.9847 17.6747L50.6364 17.6747C49.1098 17.6747 47.8723 16.2359 47.8723 14.4611C47.8723 12.6863 49.1098 11.2475 50.6364 11.2475L69.9847 11.2475C71.5113 11.2475 72.7488 12.6863 72.7488 14.4611Z" fill="#27AE60"/>
</svg>
