<svg width="77" height="74" viewBox="0 0 77 74" fill="none" xmlns="http://www.w3.org/2000/svg">
<path d="M10.1241 60.216C18.7801 55.4717 28.557 52.9854 38.5 53C48.8125 53 58.4939 55.62 66.8759 60.216M50.875 29C50.875 32.1826 49.5712 35.2348 47.2504 37.4853C44.9297 39.7357 41.7821 41 38.5 41C35.2179 41 32.0703 39.7357 29.7496 37.4853C27.4288 35.2348 26.125 32.1826 26.125 29C26.125 25.8174 27.4288 22.7652 29.7496 20.5147C32.0703 18.2643 35.2179 17 38.5 17C41.7821 17 44.9297 18.2643 47.2504 20.5147C49.5712 22.7652 50.875 25.8174 50.875 29ZM75.625 37C75.625 41.7276 74.6647 46.4089 72.799 50.7766C70.9333 55.1443 68.1987 59.1129 64.7513 62.4558C61.304 65.7988 57.2113 68.4505 52.7071 70.2597C48.2029 72.0688 43.3753 73 38.5 73C33.6247 73 28.7971 72.0688 24.2929 70.2597C19.7887 68.4505 15.696 65.7988 12.2487 62.4558C8.80128 59.1129 6.06668 55.1443 4.20097 50.7766C2.33527 46.4089 1.375 41.7276 1.375 37C1.375 27.4522 5.28637 18.2955 12.2487 11.5442C19.2109 4.79285 28.6538 1 38.5 1C48.3462 1 57.789 4.79285 64.7513 11.5442C71.7136 18.2955 75.625 27.4522 75.625 37Z" stroke="#003838" stroke-width="2" stroke-linecap="round" stroke-linejoin="round"/>
</svg>
