<svg width="192" height="49" viewBox="0 0 192 49" fill="none" xmlns="http://www.w3.org/2000/svg">
<path d="M113.066 26.7492C112.012 25.674 111.495 24.3712 111.495 22.7997C111.495 21.2281 112.012 19.9254 113.066 18.8501C114.141 17.7749 115.465 17.2579 117.036 17.2579C118.877 17.2579 120.531 18.1057 121.462 19.5118L119.29 21.1248C118.835 20.3803 117.988 19.9254 117.016 19.9254C115.403 19.9254 114.203 21.1248 114.203 22.7997C114.203 23.6268 114.472 24.3092 115.01 24.8468C115.527 25.3638 116.209 25.6533 117.016 25.6533C118.029 25.6533 118.877 25.1984 119.332 24.4539L121.503 26.0669C120.531 27.4523 118.897 28.3415 117.057 28.3415C115.444 28.3415 114.141 27.8245 113.066 26.7492Z" fill="black"/>
<path d="M125.101 23.8958C125.452 25.1985 126.424 25.8395 128.016 25.8395C129.03 25.8395 129.815 25.488 130.332 24.8056L132.483 26.0463C131.47 27.5145 129.96 28.2589 127.996 28.2589C126.279 28.2589 124.915 27.7419 123.901 26.708C122.868 25.6741 122.351 24.3714 122.351 22.8205C122.351 21.2697 122.868 19.9669 123.881 18.9537C124.894 17.8991 126.217 17.3821 127.789 17.3821C129.298 17.3821 130.56 17.8991 131.511 18.9537C132.504 20.0083 133 21.2903 133 22.8205C133 23.172 132.959 23.5236 132.896 23.9165H125.101V23.8958ZM130.312 21.828C130.002 20.4218 128.968 19.7395 127.748 19.7395C126.321 19.7395 125.349 20.5046 125.039 21.828H130.312Z" fill="black"/>
<path d="M68.6079 23.7301C68.6079 24.9501 68.1737 25.9633 67.3052 26.7491C66.4367 27.5349 65.3615 27.9278 64.1001 27.9278H58V13.4944H63.6865C64.9272 13.4944 65.9611 13.8873 66.8089 14.6524C67.6567 15.4174 68.091 16.3893 68.091 17.568C68.091 18.7673 67.6361 19.7392 66.7262 20.4629C67.9876 21.166 68.6079 22.2826 68.6079 23.7301ZM60.8536 16.1619V19.3463H63.7072C64.5964 19.3463 65.2581 18.6639 65.2581 17.7541C65.2581 16.8442 64.617 16.1619 63.7072 16.1619H60.8536V16.1619ZM64.1208 25.2603C65.0926 25.2603 65.7957 24.5366 65.7957 23.544C65.7957 22.5721 65.0926 21.8484 64.1208 21.8484H60.8536V25.2603H64.1208V25.2603Z" fill="black"/>
<path d="M78.2232 17.6095H80.8906L80.9113 27.928H78.2438V26.708C77.4374 27.7212 76.3208 28.2175 74.894 28.2175C73.5085 28.2175 72.3299 27.7005 71.3373 26.6666C70.3654 25.612 69.8691 24.33 69.8691 22.7998C69.8691 21.2696 70.3654 19.9875 71.3166 18.9329C72.3092 17.8783 73.4672 17.3407 74.8526 17.3407C76.3001 17.3407 77.4167 17.837 78.2232 18.8295V17.6095ZM75.3696 25.674C76.1967 25.674 76.8791 25.4052 77.4167 24.8676C77.975 24.3093 78.2438 23.6062 78.2438 22.7584C78.2438 21.9106 77.975 21.2075 77.4167 20.6699C76.8791 20.1116 76.1967 19.8428 75.3696 19.8428C74.5424 19.8428 73.86 20.1116 73.3224 20.6699C72.7848 21.2075 72.516 21.9106 72.516 22.7584C72.516 23.6062 72.7848 24.3093 73.3224 24.8676C73.86 25.4052 74.5424 25.674 75.3696 25.674Z" fill="black"/>
<path d="M82.876 27.9279V12.8741H85.5435V27.9279H82.876Z" fill="black"/>
<path d="M95.5312 17.6095H98.1987V27.928H95.5312V26.708C94.7247 27.7212 93.6081 28.2175 92.1606 28.2175C90.7752 28.2175 89.5965 27.7005 88.6247 26.6459C87.6528 25.5913 87.1565 24.2886 87.1565 22.7791C87.1565 21.2489 87.6528 19.9668 88.6247 18.9329C89.6172 17.8783 90.7959 17.3407 92.1606 17.3407C93.6081 17.3407 94.7247 17.837 95.5312 18.8502V17.6095ZM92.6569 25.674C93.484 25.674 94.1664 25.4052 94.7041 24.8676C95.2624 24.3093 95.5312 23.6062 95.5312 22.7584C95.5312 21.9106 95.2624 21.2075 94.7041 20.6699C94.1664 20.1116 93.484 19.8428 92.6569 19.8428C91.8298 19.8428 91.1474 20.1116 90.6098 20.6699C90.0721 21.2075 89.8033 21.9106 89.8033 22.7584C89.8033 23.6062 90.0721 24.3093 90.6098 24.8676C91.1474 25.4052 91.8298 25.674 92.6569 25.674Z" fill="black"/>
<path d="M108.641 18.4572C109.385 19.2223 109.758 20.2562 109.758 21.6003V27.9278H107.09V21.9311C107.09 20.5457 106.284 19.8013 105.043 19.8013C103.657 19.8013 102.768 20.6491 102.768 22.3654V27.9278H100.101V17.6094H102.768V18.7673C103.409 17.7955 104.443 17.3199 105.849 17.3199C106.987 17.3199 107.917 17.6921 108.641 18.4572Z" fill="black"/>
<path d="M24.3 48.7C37.7205 48.7 48.6 37.8205 48.6 24.4C48.6 10.9795 37.7205 0.0999985 24.3 0.0999985C10.8795 0.0999985 0 10.9795 0 24.4C0 37.8205 10.8795 48.7 24.3 48.7Z" fill="#FFB600"/>
<path d="M7.19995 41.7C11.6 46.1 17.5999 48.8 24.2999 48.8C30.9999 48.8 37 46.1 41.4 41.8L24.2 24.5L7.19995 41.7Z" fill="black"/>
<path d="M41.4 7.1C37 2.7 30.9999 0 24.2999 0C17.5999 0 11.6 2.7 7.19995 7L24.4 24.2L41.4 7.1Z" fill="black"/>
<path d="M24.2999 43.3C34.7381 43.3 43.1999 34.8382 43.1999 24.4C43.1999 13.9618 34.7381 5.5 24.2999 5.5C13.8617 5.5 5.3999 13.9618 5.3999 24.4C5.3999 34.8382 13.8617 43.3 24.2999 43.3Z" fill="#FFB600"/>
<path d="M29.1999 29.4C27.9999 30.7 26.2999 31.4 24.2999 31.4C22.2999 31.4 20.6999 30.7 19.3999 29.4C18.0999 28.1 17.3999 26.4 17.3999 24.4C17.3999 20.3 20.2999 17.4 24.2999 17.4C26.2999 17.4 28.0999 18.2 29.2999 19.6L33.9999 14.9C31.5999 12.4 28.1999 10.9 24.3999 10.9C20.5999 10.9 17.2999 12.2 14.6999 14.8C12.0999 17.4 10.8999 20.6 10.8999 24.5C10.8999 28.3 12.1999 31.5 14.6999 34.2C17.2999 36.8 20.4999 38.1 24.4999 38.1C28.1999 38.1 31.5999 36.6 33.9999 34.2L29.1999 29.4Z" fill="black"/>
<path d="M63.3001 37.5C63.9001 38 64.2001 38.7 64.2001 39.6C64.2001 40.6 63.9001 41.3 63.2001 41.8C62.6001 42.3 61.7001 42.5 60.6001 42.5H57.6001V33.5H63.1001L63.0001 35H59.7001V36.8H60.7001C61.8001 36.8 62.7001 37 63.3001 37.5ZM61.8001 40.7C62.1001 40.5 62.2001 40.1 62.2001 39.5C62.2001 39 62.1001 38.6 61.8001 38.4C61.5001 38.2 61.1001 38 60.5001 38H59.6001V41H60.5001C61.1001 41.1 61.5001 41 61.8001 40.7Z" fill="black"/>
<path d="M70.8001 36.4C71.4001 37 71.7001 37.9 71.7001 39.1C71.7001 39.8 71.6001 40.5 71.3001 41C71.0001 41.6 70.7001 42 70.2001 42.3C69.7001 42.6 69.1001 42.8 68.4001 42.8C67.4001 42.8 66.6001 42.5 66.0001 41.8C65.4001 41.2 65.1001 40.3 65.1001 39.1C65.1001 38.4 65.2001 37.7 65.5001 37.2C65.8001 36.6 66.1001 36.2 66.6001 35.9C67.1001 35.6 67.7001 35.4 68.4001 35.4C69.4001 35.4 70.2001 35.7 70.8001 36.4ZM67.3001 37.3C67.1001 37.7 67.0001 38.2 67.0001 39C67.0001 39.8 67.1001 40.4 67.3001 40.7C67.5001 41.1 67.9001 41.3 68.3001 41.3C68.7001 41.3 69.1001 41.1 69.3001 40.7C69.5001 40.3 69.6001 39.8 69.6001 39C69.6001 38.2 69.5001 37.6 69.3001 37.3C69.1001 36.9 68.7001 36.7 68.3001 36.7C67.9001 36.8 67.5001 37 67.3001 37.3Z" fill="black"/>
<path d="M78.6 35.6V42.5H76.7V37H75.2L75 38.7C74.9 39.7 74.8 40.4 74.7 40.9C74.6 41.4 74.4 41.8 74.1 42C73.8 42.3 73.3 42.5 72.7 42.6L72.3 41.2C72.6 41.1 72.8 40.9 72.9 40.8C73 40.6 73.1 40.4 73.2 40.1C73.3 39.8 73.3 39.2 73.4 38.5L73.6 35.5H78.6V35.6Z" fill="black"/>
<path d="M85.2001 38.4C85.7001 38.8 86.0001 39.4 86.0001 40.2C86.0001 41 85.7001 41.6 85.2001 42C84.7001 42.4 84.0001 42.6 83.1001 42.6H80.4001V35.7H82.3001V37.9H82.9001C83.9001 37.8 84.7001 38 85.2001 38.4ZM84.1001 40.1C84.1001 39.7 84.0001 39.4 83.8001 39.3C83.6001 39.1 83.3001 39 82.8001 39H82.2001V41.3H82.9001C83.7001 41.3 84.1001 40.9 84.1001 40.1Z" fill="black"/>
<path d="M95.6002 35.6V42.5H87.2002V35.6H89.0002V41.1H90.6002V35.6H92.2002V41.1H93.8002V35.6H95.6002Z" fill="black"/>
<path d="M103.2 39.6H98.9001C99.0001 40.2 99.1001 40.7 99.4001 40.9C99.7001 41.2 100.1 41.3 100.5 41.3C100.8 41.3 101.1 41.3 101.3 41.2C101.6 41.1 101.8 41 102.1 40.7L102.9 41.7C102.1 42.3 101.3 42.6 100.3 42.6C99.2001 42.6 98.4001 42.3 97.8001 41.6C97.2001 40.9 96.9001 40.1 96.9001 38.9C96.9001 38.2 97.0001 37.6 97.3001 37C97.5001 36.4 97.9001 36 98.4001 35.7C98.9001 35.4 99.4001 35.2 100.1 35.2C101.1 35.2 101.8 35.5 102.4 36.1C102.9 36.7 103.2 37.6 103.2 38.7C103.3 39 103.3 39.2 103.2 39.6ZM101.4 38.4C101.4 37.3 101 36.7 100.2 36.7C99.8001 36.7 99.5001 36.8 99.3001 37.1C99.1001 37.4 99.0001 37.8 98.9001 38.5L101.4 38.4Z" fill="black"/>
<path d="M105.9 40.8C106.1 41 106.2 41.3 106.2 41.6C106.2 41.8 106.2 42 106.1 42.1C106 42.3 105.9 42.5 105.8 42.8L105 44.7H104L104.5 42.4C104.4 42.3 104.2 42.2 104.1 42C104 41.8 104 41.7 104 41.5C104 41.2 104.1 40.9 104.3 40.7C104.5 40.5 104.8 40.4 105.1 40.4C105.5 40.5 105.7 40.6 105.9 40.8Z" fill="black"/>
<path d="M116.2 35.6V42.5H114.3V39.8C114 40 113.7 40.2 113.4 40.3C113.1 40.4 112.7 40.5 112.3 40.5C111.6 40.5 111.1 40.3 110.8 39.9C110.5 39.5 110.3 39 110.3 38.3V35.5H112.2V38.1C112.2 38.4 112.3 38.7 112.4 38.8C112.5 38.9 112.7 39 113 39C113.2 39 113.5 39 113.7 38.9C113.9 38.8 114.1 38.7 114.3 38.5V35.4H116.2V35.6Z" fill="black"/>
<path d="M123.8 39.6H119.5C119.6 40.2 119.7 40.7 120 40.9C120.3 41.2 120.7 41.3 121.1 41.3C121.4 41.3 121.7 41.3 121.9 41.2C122.2 41.1 122.4 41 122.7 40.7L123.5 41.7C122.7 42.3 121.9 42.6 120.9 42.6C119.8 42.6 119 42.3 118.4 41.6C117.8 40.9 117.5 40.1 117.5 38.9C117.5 38.2 117.6 37.6 117.9 37C118.1 36.4 118.5 36 119 35.7C119.5 35.4 120 35.2 120.7 35.2C121.7 35.2 122.4 35.5 123 36.1C123.5 36.7 123.8 37.6 123.8 38.7C123.9 39 123.8 39.2 123.8 39.6ZM122 38.4C122 37.3 121.6 36.7 120.8 36.7C120.4 36.7 120.1 36.8 119.9 37.1C119.7 37.4 119.6 37.8 119.5 38.5L122 38.4Z" fill="black"/>
<path d="M132.6 42.5H130.8L130.6 39.8C130.6 39.4 130.6 39.1 130.6 38.7C130.6 38.5 130.6 38 130.7 37.2L129.5 41.8H127.9L126.7 37.3C126.7 37.8 126.8 38.2 126.8 38.8C126.8 39.1 126.8 39.4 126.8 39.9L126.6 42.6H124.8L125.4 35.7H127.6L128.6 40.3L129.7 35.7H131.9L132.6 42.5Z" fill="black"/>
<path d="M141.1 42.5V37H139V42.5H137.1V35.6H142.9V42.5H141.1Z" fill="black"/>
<path d="M150.4 35.6V42.5H148.5V37H147L146.9 38.7C146.8 39.7 146.7 40.4 146.6 40.9C146.5 41.4 146.3 41.8 146 42C145.7 42.3 145.2 42.5 144.6 42.6L144.2 41.2C144.5 41.1 144.7 40.9 144.8 40.8C144.9 40.6 145 40.4 145.1 40.1C145.2 39.8 145.2 39.2 145.3 38.5L145.5 35.5H150.4V35.6Z" fill="black"/>
<path d="M157.7 41.2C157.8 41.3 157.9 41.4 158.1 41.5L157.7 42.7C157.3 42.7 157 42.6 156.7 42.4C156.4 42.2 156.2 42 156.1 41.7C155.6 42.4 155 42.7 154 42.7C153.3 42.7 152.8 42.5 152.4 42.1C152 41.7 151.8 41.2 151.8 40.6C151.8 39.8 152.1 39.3 152.6 38.9C153.1 38.5 153.9 38.3 155 38.3H155.8V38C155.8 37.6 155.7 37.3 155.5 37.1C155.3 36.9 155 36.9 154.5 36.9C154 36.9 153.4 37 152.7 37.3L152.3 36.1C153.2 35.8 154 35.6 154.9 35.6C155.8 35.6 156.5 35.8 157 36.2C157.4 36.6 157.7 37.2 157.7 38V40.8C157.5 40.9 157.6 41.1 157.7 41.2ZM155.7 40.6V39.3H155.1C154.1 39.3 153.6 39.7 153.6 40.4C153.6 40.7 153.7 40.9 153.8 41.1C154 41.3 154.2 41.4 154.5 41.4C155 41.4 155.4 41.1 155.7 40.6Z" fill="black"/>
<path d="M164.4 35.6L164.2 37H162.2V42.5H160.3V37H158.2V35.6H164.4Z" fill="black"/>
<path d="M170.7 39.6H166.4C166.5 40.2 166.6 40.7 166.9 40.9C167.2 41.2 167.6 41.3 168 41.3C168.3 41.3 168.6 41.3 168.8 41.2C169.1 41.1 169.3 41 169.6 40.7L170.4 41.7C169.6 42.3 168.8 42.6 167.8 42.6C166.7 42.6 165.9 42.3 165.3 41.6C164.7 40.9 164.4 40.1 164.4 38.9C164.4 38.2 164.5 37.6 164.8 37C165 36.4 165.4 36 165.9 35.7C166.4 35.4 166.9 35.2 167.6 35.2C168.6 35.2 169.3 35.5 169.9 36.1C170.4 36.7 170.7 37.6 170.7 38.7C170.8 39 170.7 39.2 170.7 39.6ZM168.9 38.4C168.9 37.3 168.5 36.7 167.7 36.7C167.3 36.7 167 36.8 166.8 37.1C166.6 37.4 166.5 37.8 166.4 38.5L168.9 38.4Z" fill="black"/>
<path d="M180.5 35.6L178.9 38.8L180.7 42.5H178.8L177.4 39.5H176.7V42.5H175.1V39.5H174.4L173 42.5H171.1L172.9 38.8L171.3 35.6H173.1L174.4 38.4H175.1V35.6H176.7V38.4H177.4L178.7 35.6H180.5Z" fill="black"/>
<path d="M187.6 42.5H185.8V39.9C185.8 39.4 185.8 38.9 185.9 38.5C186 38.1 186 37.7 186.1 37.4L183.6 42.5H181.7V35.6H183.5V38.3C183.5 38.8 183.5 39.2 183.4 39.7C183.4 40.2 183.3 40.5 183.2 40.8L185.6 35.7H187.6V42.5Z" fill="black"/>
<path d="M190.9 40.8C191.1 41 191.2 41.3 191.2 41.6C191.2 41.9 191.1 42.2 190.9 42.4C190.7 42.6 190.4 42.7 190.1 42.7C189.8 42.7 189.5 42.6 189.3 42.4C189.1 42.2 189 41.9 189 41.6C189 41.3 189.1 41 189.3 40.8C189.5 40.6 189.8 40.5 190.1 40.5C190.4 40.5 190.7 40.6 190.9 40.8ZM191.1 33.5L190.9 39.3H189.4L189.2 33.5H191.1Z" fill="black"/>
</svg>
